PathFileType	4	(X/Y/Z)	C:/Users/beibeiliu/ov580/test_trc\sequence.28_training_dense_left.trc
DataRate	CameraRate	NumFrames	NumMarkers	Units	OrigDataRate	OrigDataStartFrame	OrigNumFrames
120	120	7	19	mm	120	209	333
Frame#	Time	ThumbCMC			ThumbMCP			ThumbIP			ThumbTip			IndexMCP			IndexPIP			IndexTip			MiddleMCP			MiddlePIP			MiddleTip			RingMCP			RingPIP			RingTip			PinkyMCP			PinkyPIP			PinkyTip			BackHand1			BackHand2			BackHand3	
		X0	Y0	Z0	X1	Y1	Z1	X2	Y2	Z2	X3	Y3	Z3	X4	Y4	Z4	X5	Y5	Z5	X6	Y6	Z6	X7	Y7	Z7	X8	Y8	Z8	X9	Y9	Z9	X10	Y10	Z10	X11	Y11	Z11	X12	Y12	Z12	X13	Y13	Z13	X14	Y14	Z14	X15	Y15	Z15	X16	Y16	Z16	X17	Y17	Z17	X18	Y18	Z18	
208	1.73333	-139.614	17.8974	26.3212	-135.017	-1.41625	0.0995143	-134.79	-13.0148	-23.0263	-150.818	-19.3282	-44.7006	-134.414	24.1343	-38.0968	-131.179	-4.0861	-37.0497	-140.718	-1.93555	-9.9326	-152.047	19.3743	-41.0245	-152.426	-9.20814	-32.7521	-158.592	7.37759	-2.83559	-171.23	13.2154	-37.7258	-163.82	-8.96494	-20.0961	-167.188	5.92748	2.85422	-182.314	10.9251	-30.8389	-176.726	-6.36428	-13.4221	-175.024	6.34263	3.84813	-178.137	45.5153	1.48306	-185.865	46.9276	27.0091	-157.872	47.1594	18.1862	
209	1.74167	-139.552	15.4287	24.5602	-134.857	-5.56332	1.84049	-137.775	-13.989	-26.3686	-151.662	-18.5677	-43.8257	-132.022	24.0462	-36.0854	-134.997	-4.31938	-39.1635	-144.137	-1.93554	-10.6107	-153.035	17.7906	-42.4618	-155.387	-11.2459	-32.5948	-154.202	4.34187	-3.67476	-167.376	14.1944	-37.9149	-164.537	-10.3762	-24.8537	-166.184	4.63184	1.73891	-185.579	11.0534	-31.9083	-180.938	-7.64048	-16.3235	-175.806	9.71106	4.22582	-176.972	46.7462	-0.548499	-179.127	47.3259	23.3537	-155.77	47.1774	18.978	
210	1.75	-137.929	14.8982	20.9222	-136.589	-7.39545	-0.824546	-140.714	-14.0561	-24.9538	-154.41	-19.6567	-46.7145	-128.13	19.4631	-39.2664	-133.26	-8.38033	-37.3833	-143.751	-4.24242	-11.7318	-150.755	14.945	-43.4281	-153.186	-10.6128	-35.8852	-156.547	7.47152	-4.75942	-170.075	12.1086	-38.9939	-165.144	-9.38089	-26.8204	-165.73	2.08601	-0.719641	-186.862	13.2238	-33.8218	-180.281	-7.70607	-18.3079	-173.186	7.06074	2.18318	-173.796	47.5987	1.74036	-181.67	45.5381	28.0824	-151.132	45.077	15.4185	
211	1.75833	-140.166	13.1407	22.109	-138.193	-7.14308	-4.592	-141.382	-16.9019	-27.6616	-155.869	-19.2195	-43.4656	-127.584	17.8192	-39.732	-135.587	-7.52805	-39.9113	-144.937	-3.68277	-9.17723	-152.075	16.5216	-43.1581	-154.431	-10.8093	-36.5323	-156.974	7.65724	-6.06074	-169.634	10.0503	-41.1669	-167.028	-11.5973	-24.5187	-166.408	3.56386	0.47879	-184.036	11.3145	-34.9675	-179.547	-6.60112	-21.8383	-172.356	3.86017	0.627654	-175.291	47.4189	-1.84059	-180.239	46.181	24.2265	-147.508	45.2589	17.3183	
212	1.76667	-135.177	9.2747	22.3837	-134.873	-13.4851	-1.53098	-143.085	-17.457	-27.8731	-159.105	-18.9166	-43.6926	-128.243	16.8696	-38.2674	-133.836	-9.0922	-39.856	-141.662	-7.10949	-9.43595	-146.379	16.6906	-40.1981	-156.81	-10.4668	-35.5311	-153.447	5.19626	-6.88739	-166.979	12.8682	-39.47	-165.625	-11.0794	-24.3035	-165.845	-1.00397	-2.06812	-182.925	16.0634	-31.8476	-179.007	-7.48708	-22.4193	-176.917	1.9125	0.507409	-174.92	45.1204	0.73891	-179.748	45.8431	28.1772	-151.798	41.7505	16.1671	
213	1.775	-140.29	9.95056	24.5022	-136.973	-15.6508	-2.25725	-145.354	-16.9527	-26.6143	-162.621	-18.5982	-48.1512	-129.42	15.4481	-39.4396	-133.537	-10.2648	-39.1537	-144.803	-9.53742	-12.7945	-148.127	12.2265	-43.6505	-153.846	-11.8511	-37.0174	-157.071	3.6364	-7.72405	-167.714	12.788	-39.3154	-166.072	-12.191	-26.2028	-163.991	-2.52603	-2.07634	-181.477	12.9576	-32.1486	-176.602	-7.93692	-20.838	-174.433	2.1788	4.25294	-174.301	44.576	0.244883	-179.291	43.3886	27.1656	-148.473	39.8333	20.6416	
214	1.78333	-139.748	8.30034	24.3094	-139.907	-13.5657	-4.55693	-147.638	-18.0864	-27.3037	-162.523	-19.6294	-43.071	-128.188	15.5831	-38.0632	-136.397	-9.3276	-39.6874	-142.745	-8.82858	-9.45571	-147.734	15.267	-40.7608	-151.297	-13.5828	-32.5648	-152.101	3.21877	-6.3107	-169.116	12.1494	-38.5146	-168.8	-12.4706	-28.3501	-167.56	-0.470914	-0.74268	-183.049	12.3102	-32.1497	-179.29	-9.28988	-18.3243	-176.203	2.59011	5.98022	-171.401	45.134	-0.175705	-177.18	42.4659	27.8315	-150.542	41.9582	19.6243	
